<svg width="448" height="348" viewBox="0 0 448 348" fill="none" xmlns="http://www.w3.org/2000/svg">
<g clip-path="url(#clip0_126_85)">
<path d="M255.093 170.162C265.174 170.162 273.346 161.988 273.346 151.904C273.346 141.821 265.174 133.647 255.093 133.647C245.012 133.647 236.84 141.821 236.84 151.904C236.84 161.988 245.012 170.162 255.093 170.162Z" fill="#E6E6E6"/>
<path d="M299.828 175.366L280.753 156.287C282.215 154.012 283.206 151.467 283.667 148.802C284.128 146.138 284.049 143.407 283.436 140.774C282.822 138.14 281.686 135.656 280.096 133.469C278.505 131.283 276.492 129.438 274.175 128.043C269.813 125.437 264.631 124.564 259.656 125.598C254.681 126.631 250.275 129.496 247.311 133.625C244.584 137.449 243.275 142.104 243.607 146.79C243.94 151.475 245.894 155.899 249.134 159.299C252.374 162.7 256.697 164.865 261.36 165.423C266.024 165.981 270.735 164.896 274.686 162.356L293.76 181.435C294.565 182.239 295.656 182.691 296.794 182.69C297.931 182.69 299.022 182.238 299.827 181.433C300.631 180.629 301.083 179.538 301.083 178.4C301.083 177.262 300.632 176.171 299.828 175.366ZM273.973 155.575C271.61 157.939 268.5 159.41 265.174 159.738C261.847 160.065 258.51 159.229 255.731 157.372C252.952 155.515 250.902 152.751 249.932 149.552C248.962 146.352 249.13 142.915 250.409 139.827C251.689 136.738 253.999 134.188 256.947 132.612C259.895 131.036 263.297 130.531 266.576 131.184C269.854 131.836 272.805 133.605 274.925 136.189C277.046 138.773 278.205 142.013 278.205 145.357C278.207 147.255 277.835 149.134 277.109 150.888C276.382 152.642 275.317 154.234 273.973 155.575Z" fill="#3F3D56"/>
<path d="M438.099 203.508C486.88 257.467 345.471 335.23 231.209 335.23C116.947 335.23 37.896 274.977 24.3198 203.508C-8.59788 30.2197 304.786 -79.9215 231.209 71.7868C123.963 292.919 399.682 161.015 438.099 203.508Z" fill="#E6E6E6"/>
<path d="M416.211 216.279C464.993 270.238 323.584 348 209.322 348C95.0597 348 16.0083 287.748 2.43208 216.279C-30.4856 42.9902 282.898 -67.151 209.322 84.5573C102.075 305.69 377.795 173.785 416.211 216.279Z" fill="#3F3D56"/>
<path d="M68.2126 89.7693C33.983 88.2618 7.44281 80.8766 7.79148 72.956C8.00052 68.2073 17.6878 64.3888 34.3694 62.4799C34.4291 62.4726 34.4897 62.4773 34.5475 62.4936C34.6054 62.5098 34.6595 62.5374 34.7068 62.5746C34.754 62.6119 34.7933 62.6581 34.8226 62.7107C34.8519 62.7632 34.8705 62.8211 34.8773 62.8808C34.8841 62.9406 34.8791 63.0011 34.8624 63.0589C34.8458 63.1167 34.8179 63.1706 34.7803 63.2176C34.7427 63.2646 34.6962 63.3036 34.6435 63.3326C34.5908 63.3615 34.5328 63.3797 34.473 63.3861C18.759 65.1845 8.88435 68.8668 8.70256 72.9961C8.38725 80.1587 35.6578 87.4225 68.2527 88.858C100.848 90.2935 128.651 85.4551 128.966 78.2925C129.149 74.1459 119.574 69.597 103.979 66.4213C103.92 66.4095 103.864 66.3862 103.815 66.3528C103.765 66.3193 103.722 66.2763 103.689 66.2263C103.656 66.1763 103.633 66.1203 103.621 66.0614C103.61 66.0025 103.61 65.9419 103.622 65.8831C103.634 65.8243 103.658 65.7684 103.691 65.7187C103.725 65.669 103.768 65.6264 103.818 65.5933C103.868 65.5603 103.924 65.5375 103.983 65.5262C104.042 65.5148 104.102 65.5153 104.161 65.5274C120.714 68.8982 130.087 73.5655 129.877 78.3326C129.529 86.2532 102.442 91.2768 68.2126 89.7693Z" fill="#016CEC"/>
<path d="M37.8115 91.0957C40.675 96.5366 44.9169 101.13 50.1126 104.416C55.3084 107.702 61.2758 109.566 67.4179 109.821C73.56 110.076 79.6614 108.713 85.1115 105.869C90.5616 103.025 95.1695 98.799 98.4739 93.6141C78.2223 93.8871 57.9709 93.0464 37.8115 91.0957Z" fill="#016CEC"/>
<path d="M102.26 84.0204C103.984 78.8502 104.48 73.3497 103.711 67.9543C102.941 62.5588 100.927 57.4166 97.827 52.9346C94.727 48.4525 90.6266 44.7537 85.8503 42.1307C81.074 39.5078 75.7528 38.0329 70.3081 37.8225C64.8633 37.6122 59.4443 38.6724 54.48 40.9191C49.5157 43.1657 45.1423 46.5373 41.706 50.7669C38.2697 54.9965 35.8647 59.968 34.6815 65.288C33.4983 70.608 33.5693 76.1304 34.8889 81.4182C57.1391 85.1962 79.7853 86.0709 102.26 84.0204Z" fill="#016CEC"/>
<path d="M76.9857 60.4771C79.2522 60.4771 81.0896 58.6394 81.0896 56.3724C81.0896 54.1053 79.2522 52.2676 76.9857 52.2676C74.7192 52.2676 72.8818 54.1053 72.8818 56.3724C72.8818 58.6394 74.7192 60.4771 76.9857 60.4771Z" fill="white"/>
<path d="M55.8642 76.436C59.6417 76.436 62.704 73.373 62.704 69.5947C62.704 65.8164 59.6417 62.7534 55.8642 62.7534C52.0867 62.7534 49.0244 65.8164 49.0244 69.5947C49.0244 73.373 52.0867 76.436 55.8642 76.436Z" fill="white"/>
<path d="M159.096 69.7348C161.614 69.7348 163.656 67.6929 163.656 65.174C163.656 62.6552 161.614 60.6133 159.096 60.6133C156.578 60.6133 154.536 62.6552 154.536 65.174C154.536 67.6929 156.578 69.7348 159.096 69.7348Z" fill="#016CEC"/>
<path d="M56.0426 209.297C57.5536 209.297 58.7785 208.072 58.7785 206.56C58.7785 205.049 57.5536 203.824 56.0426 203.824C54.5316 203.824 53.3066 205.049 53.3066 206.56C53.3066 208.072 54.5316 209.297 56.0426 209.297Z" fill="#E6E6E6"/>
<path d="M247.556 303.251C249.067 303.251 250.292 302.025 250.292 300.514C250.292 299.003 249.067 297.778 247.556 297.778C246.045 297.778 244.82 299.003 244.82 300.514C244.82 302.025 246.045 303.251 247.556 303.251Z" fill="#E6E6E6"/>
<path d="M69.2664 156.391C70.0219 156.391 70.6344 155.778 70.6344 155.023C70.6344 154.267 70.0219 153.654 69.2664 153.654C68.5109 153.654 67.8984 154.267 67.8984 155.023C67.8984 155.778 68.5109 156.391 69.2664 156.391Z" fill="#E6E6E6"/>
<path d="M182.35 258.554C183.106 258.554 183.718 257.942 183.718 257.186C183.718 256.43 183.106 255.818 182.35 255.818C181.595 255.818 180.982 256.43 180.982 257.186C180.982 257.942 181.595 258.554 182.35 258.554Z" fill="#E6E6E6"/>
<path d="M388 245.328C388.755 245.328 389.368 244.715 389.368 243.96C389.368 243.204 388.755 242.591 388 242.591C387.244 242.591 386.632 243.204 386.632 243.96C386.632 244.715 387.244 245.328 388 245.328Z" fill="#E6E6E6"/>
<path d="M323.706 285.919C324.461 285.919 325.074 285.307 325.074 284.551C325.074 283.795 324.461 283.183 323.706 283.183C322.95 283.183 322.338 283.795 322.338 284.551C322.338 285.307 322.95 285.919 323.706 285.919Z" fill="#E6E6E6"/>
<path d="M256.677 236.662C257.432 236.662 258.045 236.05 258.045 235.294C258.045 234.538 257.432 233.926 256.677 233.926C255.921 233.926 255.309 234.538 255.309 235.294C255.309 236.05 255.921 236.662 256.677 236.662Z" fill="#E6E6E6"/>
<path d="M170.039 101.661C170.794 101.661 171.407 101.048 171.407 100.293C171.407 99.5369 170.794 98.9243 170.039 98.9243C169.283 98.9243 168.671 99.5369 168.671 100.293C168.671 101.048 169.283 101.661 170.039 101.661Z" fill="#E6E6E6"/>
<path d="M180.983 34.1599C181.739 34.1599 182.351 33.5473 182.351 32.7916C182.351 32.0359 181.739 31.4233 180.983 31.4233C180.228 31.4233 179.615 32.0359 179.615 32.7916C179.615 33.5473 180.228 34.1599 180.983 34.1599Z" fill="#E6E6E6"/>
<path d="M174.599 318.302C175.355 318.302 175.967 317.689 175.967 316.933C175.967 316.178 175.355 315.565 174.599 315.565C173.844 315.565 173.231 316.178 173.231 316.933C173.231 317.689 173.844 318.302 174.599 318.302Z" fill="#E6E6E6"/>
<path d="M107.113 289.568C107.869 289.568 108.481 288.956 108.481 288.2C108.481 287.444 107.869 286.832 107.113 286.832C106.358 286.832 105.745 287.444 105.745 288.2C105.745 288.956 106.358 289.568 107.113 289.568Z" fill="#E6E6E6"/>
<path d="M320.971 240.311C321.726 240.311 322.339 239.698 322.339 238.943C322.339 238.187 321.726 237.574 320.971 237.574C320.215 237.574 319.603 238.187 319.603 238.943C319.603 239.698 320.215 240.311 320.971 240.311Z" fill="#E6E6E6"/>
<path d="M67.6566 106.632C69.9231 106.632 71.7605 104.795 71.7605 102.528C71.7605 100.261 69.9231 98.4229 67.6566 98.4229C65.3901 98.4229 63.5527 100.261 63.5527 102.528C63.5527 104.795 65.3901 106.632 67.6566 106.632Z" fill="white"/>
<path d="M160.464 165.513C160.464 177.772 141.513 206.34 135.975 214.426C135.808 214.671 135.584 214.871 135.322 215.009C135.06 215.147 134.769 215.219 134.473 215.219C134.177 215.219 133.885 215.147 133.623 215.009C133.361 214.871 133.137 214.671 132.97 214.426C127.432 206.34 108.481 177.772 108.481 165.513C108.481 162.099 109.154 158.718 110.46 155.564C111.766 152.41 113.681 149.544 116.094 147.13C118.508 144.716 121.373 142.801 124.526 141.495C127.68 140.188 131.059 139.516 134.473 139.516C137.886 139.516 141.266 140.188 144.419 141.495C147.572 142.801 150.438 144.716 152.851 147.13C155.265 149.544 157.179 152.41 158.485 155.564C159.792 158.718 160.464 162.099 160.464 165.513Z" fill="white"/>
<path d="M134.473 176.915C141.776 176.915 147.696 170.993 147.696 163.688C147.696 156.384 141.776 150.462 134.473 150.462C127.169 150.462 121.249 156.384 121.249 163.688C121.249 170.993 127.169 176.915 134.473 176.915Z" fill="#016CEC"/>
<path d="M134.244 229.365C142.681 229.365 149.52 228.037 149.52 226.4C149.52 224.763 142.681 223.436 134.244 223.436C125.808 223.436 118.969 224.763 118.969 226.4C118.969 228.037 125.808 229.365 134.244 229.365Z" fill="white"/>
<path d="M372.473 144.999C372.357 145.223 372.26 145.456 372.181 145.696L350.392 151.751L346.466 147.908L339.893 153.077L346.183 160.556C346.691 161.16 347.381 161.584 348.15 161.762C348.919 161.94 349.725 161.864 350.447 161.546L373.984 151.154C374.782 151.708 375.73 152.006 376.702 152.008C377.674 152.01 378.624 151.716 379.425 151.166C380.226 150.615 380.84 149.833 381.186 148.925C381.532 148.016 381.593 147.024 381.361 146.079C381.13 145.135 380.616 144.284 379.889 143.639C379.162 142.994 378.255 142.585 377.29 142.468C376.326 142.351 375.348 142.53 374.487 142.982C373.627 143.434 372.924 144.138 372.473 144.999H372.473Z" fill="#FFB8B8"/>
<path d="M349.625 152.106L341.447 158.473C341.214 158.654 340.945 158.783 340.658 158.851C340.371 158.918 340.073 158.923 339.784 158.866C339.494 158.808 339.221 158.688 338.982 158.515C338.744 158.342 338.545 158.12 338.4 157.863L333.317 148.865C332.397 147.669 331.989 146.157 332.182 144.66C332.375 143.164 333.153 141.805 334.346 140.881C335.54 139.958 337.051 139.545 338.548 139.734C340.044 139.924 341.405 140.699 342.332 141.89L349.782 149.002C349.995 149.206 350.162 149.453 350.271 149.727C350.38 150.001 350.429 150.295 350.414 150.59C350.399 150.884 350.321 151.172 350.185 151.434C350.048 151.696 349.857 151.925 349.625 152.106V152.106Z" fill="#016CEC"/>
<path d="M374.562 141.987L382.856 145.719C383.203 145.876 383.474 146.164 383.609 146.52C383.744 146.876 383.732 147.271 383.576 147.618L382.594 149.801C382.71 149.854 382.8 149.95 382.845 150.068C382.89 150.187 382.886 150.319 382.834 150.434L382.442 151.308C382.389 151.423 382.293 151.513 382.175 151.558C382.056 151.603 381.924 151.6 381.809 151.548L381.416 152.421C381.531 152.473 381.621 152.569 381.666 152.688C381.711 152.807 381.708 152.938 381.656 153.054L381.263 153.927C381.211 154.043 381.115 154.133 380.996 154.178C380.878 154.223 380.746 154.219 380.63 154.167L375.328 165.955C375.172 166.303 374.884 166.574 374.528 166.709C374.172 166.844 373.777 166.832 373.429 166.676L365.136 162.944C364.789 162.788 364.518 162.5 364.382 162.144C364.247 161.787 364.259 161.392 364.415 161.045L372.664 142.708C372.82 142.36 373.108 142.089 373.464 141.954C373.82 141.819 374.215 141.831 374.562 141.987Z" fill="#3F3D56"/>
<path d="M366.642 161.782L373.295 164.779C373.628 164.928 374.007 164.94 374.349 164.81C374.69 164.681 374.967 164.422 375.118 164.09L378.191 157.253L379.259 154.884L382.04 148.698C382.188 148.365 382.199 147.987 382.07 147.646C381.941 147.306 381.682 147.03 381.35 146.879L379.259 145.936L374.692 143.882C374.359 143.733 373.98 143.723 373.639 143.853C373.298 143.983 373.023 144.243 372.874 144.576L370.184 150.556L367.12 157.364L365.953 159.963C365.803 160.296 365.792 160.674 365.921 161.015C366.051 161.356 366.31 161.632 366.642 161.782Z" fill="#F2F2F2"/>
<path d="M352.74 246.489L358.331 246.488L360.99 224.921L352.739 224.921L352.74 246.489Z" fill="#FFB8B8"/>
<path d="M351.314 244.663L362.324 244.662H362.324C363.245 244.662 364.158 244.844 365.009 245.196C365.86 245.549 366.634 246.066 367.285 246.718C367.937 247.369 368.454 248.143 368.806 248.994C369.159 249.846 369.34 250.758 369.34 251.68V251.908L351.315 251.909L351.314 244.663Z" fill="#2F2E41"/>
<path d="M367.331 245.12L372.921 245.12L375.581 223.552L367.33 223.553L367.331 245.12Z" fill="#FFB8B8"/>
<path d="M365.905 243.295L376.914 243.294H376.915C377.836 243.294 378.749 243.476 379.6 243.828C380.451 244.181 381.225 244.698 381.876 245.349C382.528 246.001 383.044 246.775 383.397 247.626C383.75 248.478 383.931 249.39 383.931 250.312V250.54L365.906 250.54L365.905 243.295Z" fill="#2F2E41"/>
<path d="M327.664 195.879C328.855 199.411 331.115 202.484 334.129 204.675C337.144 206.866 340.764 208.065 344.49 208.107L344.773 208.111C347.659 208.193 351.047 207.263 354.371 205.927C360.937 203.286 367.244 199.058 368.917 197.895L366.081 225.164L364.932 236.22C364.903 236.506 364.934 236.795 365.024 237.068C365.113 237.341 365.259 237.593 365.451 237.806C365.643 238.02 365.878 238.191 366.141 238.308C366.403 238.425 366.687 238.486 366.975 238.487H374.056C374.51 238.487 374.952 238.337 375.311 238.059C375.671 237.782 375.929 237.393 376.044 236.954L387.736 192.417C388.086 191.084 388.115 189.687 387.818 188.341C387.522 186.995 386.909 185.739 386.03 184.676C385.152 183.614 384.033 182.777 382.767 182.233C381.501 181.689 380.123 181.454 378.748 181.549L354.463 183.214L356.159 176.427L334.481 174.986L334.418 175.031C333.898 175.41 333.392 175.807 332.908 176.222C331.7 177.244 330.628 178.418 329.721 179.715C328.097 182.043 327.062 184.729 326.704 187.544C326.346 190.359 326.675 193.219 327.664 195.879Z" fill="#2F2E41"/>
<path d="M327.664 195.879C328.855 199.41 331.115 202.484 334.129 204.675C337.143 206.866 340.764 208.065 344.49 208.107C348.053 206.303 351.491 204.263 354.782 202L354.371 205.927L350.796 240.325C350.767 240.611 350.799 240.9 350.888 241.173C350.977 241.446 351.123 241.697 351.315 241.911C351.508 242.125 351.743 242.295 352.005 242.413C352.268 242.53 352.552 242.591 352.839 242.591H359.921C360.375 242.592 360.816 242.441 361.176 242.164C361.536 241.887 361.793 241.498 361.909 241.059L366.081 225.164L373.6 196.522C373.951 195.189 373.979 193.792 373.683 192.445C373.386 191.099 372.773 189.843 371.895 188.781C371.016 187.719 369.898 186.881 368.632 186.337C367.365 185.793 365.988 185.559 364.613 185.654L340.327 187.318L342.023 180.532L329.721 179.715C328.097 182.043 327.062 184.729 326.704 187.544C326.346 190.359 326.675 193.219 327.664 195.879Z" fill="#2F2E41"/>
<path d="M332.878 177.795L332.715 177.775L328.932 159.174C328.9 159.012 325.807 142.968 335.287 134.58L335.452 133.432C335.494 133.138 335.6 132.857 335.761 132.608C335.922 132.359 336.136 132.147 336.387 131.989C336.638 131.83 336.92 131.728 337.214 131.689C337.508 131.65 337.807 131.676 338.091 131.763L347.021 134.534C347.527 134.69 347.952 135.035 348.209 135.498C348.466 135.961 348.533 136.505 348.398 137.016L347.53 140.319C348.733 141.733 362.903 158.796 357.967 171.942L355.757 180.585L332.878 177.795Z" fill="#016CEC"/>
<path d="M369.958 163.277C369.744 163.412 369.542 163.563 369.352 163.729L347.511 157.865L346.084 152.559L337.796 153.667L339.411 163.306C339.541 164.085 339.921 164.8 340.492 165.345C341.064 165.89 341.797 166.234 342.581 166.327L368.131 169.346C368.536 170.229 369.202 170.968 370.037 171.464C370.873 171.96 371.841 172.19 372.81 172.123C373.78 172.056 374.706 171.695 375.466 171.088C376.226 170.482 376.783 169.658 377.063 168.727C377.343 167.797 377.334 166.802 377.035 165.877C376.737 164.952 376.164 164.139 375.393 163.548C374.621 162.956 373.688 162.613 372.718 162.565C371.747 162.517 370.784 162.765 369.958 163.277H369.958Z" fill="#FFB8B8"/>
<path d="M346.67 157.78L336.391 159.104C336.099 159.142 335.802 159.116 335.52 159.029C335.238 158.941 334.979 158.794 334.759 158.597C334.54 158.4 334.365 158.158 334.248 157.888C334.13 157.617 334.072 157.325 334.078 157.03L334.274 146.698C334.089 145.2 334.506 143.69 335.433 142.499C336.36 141.309 337.721 140.534 339.218 140.346C340.715 140.157 342.225 140.571 343.418 141.494C344.611 142.418 345.389 143.778 345.582 145.274L348.382 155.187C348.462 155.471 348.48 155.769 348.435 156.06C348.39 156.351 348.282 156.63 348.12 156.876C347.957 157.122 347.744 157.33 347.493 157.486C347.243 157.642 346.962 157.742 346.67 157.78Z" fill="#016CEC"/>
<path d="M343.777 129.239C349.962 129.239 354.976 124.224 354.976 118.037C354.976 111.85 349.962 106.835 343.777 106.835C337.591 106.835 332.577 111.85 332.577 118.037C332.577 124.224 337.591 129.239 343.777 129.239Z" fill="#FFB8B8"/>
<path d="M343.187 118.972L341.785 116.418C339.129 127.242 343.821 136.2 343.821 136.2L325.612 127.717L325.785 124.707L323.984 126.752L321.395 125.325L321.053 123.372L319.099 123.857L326.232 110.909C333.155 98.5892 343.22 103.293 343.22 103.293C359.232 102.532 357.276 118.333 357.276 118.333L343.187 118.972Z" fill="#2F2E41"/>
<path d="M215.7 202.451C218.282 200.795 215.141 191.287 208.686 181.215C202.23 171.142 194.903 164.319 192.321 165.974C189.739 167.63 192.879 177.138 199.335 187.21C205.791 197.283 213.117 204.106 215.7 202.451Z" fill="#3F3D56"/>
</g>
<defs>
<clipPath id="clip0_126_85">
<rect width="448" height="348" fill="white"/>
</clipPath>
</defs>
</svg>
